# xmcd
#
# Track frame offsets: 
#        150
#        15604
#        31697
#        53800
#        80987
#        95934
#        115376
#        143049
#        165660
#        195598
#        212906
#        232354
#        245702
#        270000
#
# Disc length: 3846 seconds
#
# Revision: 2
# Processed by: cddbd v1.5.2PL0 Copyright (c) Steve Scherf et al.
# Submitted via: ExactAudioCopy v0.99pb4
#
DISCID=c80f040e
DTITLE=Зинчук Виктор - Неолирика
DYEAR=2000
DGENRE=Easy Listening
TTITLE0=Лолита
TTITLE1=Зеленые рукава
TTITLE2=Я влюблен в тебя
TTITLE3=Мелодия из к/ф "Крестный отец"
TTITLE4=Только ты
TTITLE5=Романс Гомеса
TTITLE6=Мами Блю
TTITLE7=Придорожное кафе
TTITLE8=Дом восходящего солнца
TTITLE9=Аранхуэс
TTITLE10=Полет орла
TTITLE11=Джекети Экс
TTITLE12=Бесаме Мучо
TTITLE13=Брошенный под дождем
EXTD=
EXTT0=
EXTT1=
EXTT2=
EXTT3=
EXTT4=
EXTT5=
EXTT6=
EXTT7=
EXTT8=
EXTT9=
EXTT10=
EXTT11=
EXTT12=
EXTT13=
PLAYORDER=
